<?xml version="1.0" encoding="UTF-8" standalone="no"?>
<svg width="637px" height="1460px" viewBox="0 0 637 1460" version="1.1" xmlns="http://www.w3.org/2000/svg" xmlns:xlink="http://www.w3.org/1999/xlink" xmlns:sketch="http://www.bohemiancoding.com/sketch/ns">
    <title>Comp</title>
    <description>Created with Sketch (http://www.bohemiancoding.com/sketch)</description>
    <defs></defs>
    <g id="Page-2" stroke="none" stroke-width="1" fill="none" fill-rule="evenodd" sketch:type="MSPage">
        <text id="Shakespeare-remixed" fill="#A89F84" sketch:type="MSTextLayer" font-family="Georgia" font-size="29" font-style="italic" font-weight="normal" sketch:alignment="middle">
            <tspan x="180.067627" y="129" fill="#000000">Shakespeare remixed</tspan>
        </text>
        <path d="M65.184,26.304 L65.184,26.112 C65.184,12.384 55.488,2.88 39.456,2.88 L12,2.88 L12,70.08 L26.784,70.08 L26.784,49.92 L38.016,49.92 C53.088,49.92 65.184,41.856 65.184,26.304 Z M50.208,26.592 C50.208,32.352 45.888,36.768 38.496,36.768 L26.784,36.768 L26.784,16.224 L38.208,16.224 C45.6,16.224 50.208,19.776 50.208,26.4 L50.208,26.592 Z M144.576,36.48 L144.576,36.288 C144.576,17.184 129.696,1.728 108.96,1.728 C88.224,1.728 73.152,17.376 73.152,36.48 L73.152,36.672 C73.152,55.776 88.032,71.232 108.768,71.232 C129.504,71.232 144.576,55.584 144.576,36.48 Z M129.12,36.672 C129.12,48.192 120.864,57.6 108.96,57.6 C97.056,57.6 88.608,48 88.608,36.48 L88.608,36.288 C88.608,24.768 96.864,15.36 108.768,15.36 C120.672,15.36 129.12,24.96 129.12,36.48 L129.12,36.672 Z M208.896,70.08 L208.896,56.928 L172.416,56.928 L172.416,42.816 L204.096,42.816 L204.096,29.664 L172.416,29.664 L172.416,16.032 L208.416,16.032 L208.416,2.88 L157.728,2.88 L157.728,70.08 L208.896,70.08 Z M272.928,16.512 L272.928,2.88 L217.248,2.88 L217.248,16.512 L237.696,16.512 L237.696,70.08 L252.48,70.08 L252.48,16.512 L272.928,16.512 Z M342.336,70.08 L325.92,46.08 C334.464,42.912 340.32,36.096 340.32,25.248 L340.32,25.056 C340.32,11.232 330.816,2.88 314.976,2.88 L284.256,2.88 L284.256,70.08 L299.04,70.08 L299.04,48.576 L310.656,48.576 L325.056,70.08 L342.336,70.08 Z M325.344,26.016 C325.344,31.68 321.216,35.52 314.016,35.52 L299.04,35.52 L299.04,16.224 L313.728,16.224 C320.928,16.224 325.344,19.488 325.344,25.824 L325.344,26.016 Z M413.184,2.88 L396.384,2.88 L380.064,29.856 L364.032,2.88 L346.752,2.88 L372.576,43.584 L372.576,70.08 L387.36,70.08 L387.36,43.296 L413.184,2.88 Z M459.744,30.912 C459.744,25.536 457.824,21.6 451.872,21.6 C444.384,21.6 438.24,28.896 433.824,35.808 C434.304,33.888 434.496,31.584 434.496,30.144 C434.496,25.056 432.384,22.464 428.832,22.464 C425.472,22.464 421.92,23.52 419.424,24.768 L418.752,27.744 C424.032,27.744 425.856,28.992 425.856,32.352 C425.856,33.408 425.664,34.656 425.376,36.096 L418.176,70.08 L426.912,70.08 L432.48,43.872 C436.224,37.536 442.656,28.416 448.128,28.416 C450.24,28.416 451.2,29.472 451.2,31.872 C451.2,32.928 451.008,34.176 450.72,35.616 L443.424,70.08 L452.16,70.08 L457.824,43.392 C461.568,37.248 467.904,28.416 473.28,28.416 C475.488,28.416 476.448,29.568 476.448,31.872 C476.448,32.832 476.256,33.984 475.968,35.328 L471.168,58.368 C470.784,60.288 470.592,61.824 470.592,63.552 C470.592,68.448 472.608,70.944 477.216,70.944 C479.904,70.944 482.688,70.176 487.104,68.16 L486.816,65.184 C485.472,65.376 484.32,65.472 483.36,65.472 C480.384,65.472 479.328,64.512 479.328,62.208 C479.328,61.248 479.616,59.712 479.904,58.368 L484.992,34.464 C485.28,33.024 485.472,31.68 485.472,30.432 C485.472,25.44 483.072,21.6 477.12,21.6 C469.92,21.6 463.872,28.512 459.456,35.04 C459.648,33.6 459.744,32.544 459.744,30.912 Z M523.488,21.6 C508.32,21.6 493.824,39.072 493.824,58.272 C493.824,66.24 497.76,71.232 504.864,71.232 C512.352,71.232 518.4,64.32 522.432,57.984 C521.952,60 521.76,61.728 521.76,63.36 C521.76,68.064 523.776,70.944 528.672,70.944 C531.744,70.944 534.624,69.984 538.08,68.16 L537.792,65.184 C536.64,65.376 535.2,65.472 534.72,65.472 C531.936,65.472 530.4,64.512 530.4,61.728 C530.4,60.864 530.592,59.712 530.88,58.368 L535.968,36 C537.216,30.432 538.944,25.344 540.576,22.56 L535.776,22.56 C534.528,23.712 533.28,24.864 532.224,26.592 C531.36,23.04 527.616,21.6 523.488,21.6 Z M522.912,26.112 C526.176,26.112 528.096,27.648 528.768,29.664 L524.064,49.536 C520.224,56.16 513.312,64.992 508.032,64.992 C505.152,64.992 503.04,62.88 503.04,57.696 C503.04,41.472 512.064,26.112 522.912,26.112 Z M559.008,71.424 C570.336,71.424 578.496,64.992 578.496,55.872 C578.496,49.152 574.656,45.696 567.456,42.624 L562.56,40.512 C558.048,38.592 556.992,36.48 556.992,33.504 C556.992,28.8 560.16,26.016 565.248,26.016 C571.296,26.016 573.216,28.896 573.408,33.888 L579.264,33.888 L580.704,25.248 C578.592,23.808 574.56,21.6 567.168,21.6 C557.568,21.6 549.12,26.496 549.12,35.712 C549.12,42.336 552.864,45.696 558.432,48.096 L563.328,50.208 C567.744,52.128 570.432,53.76 570.432,58.368 C570.432,64.608 565.44,67.008 559.776,67.008 C553.344,67.008 551.136,64.704 551.136,58.848 L551.136,57.696 L545.088,57.696 L543.456,67.104 C545.472,68.544 549.6,71.424 559.008,71.424 Z M613.344,58.368 C612.96,60.384 612.672,62.208 612.672,63.84 C612.672,68.448 614.592,70.944 619.296,70.944 C621.792,70.944 624.864,70.176 629.28,68.16 L628.992,65.184 C627.552,65.376 626.4,65.472 625.44,65.472 C622.56,65.472 621.504,64.512 621.504,62.208 C621.504,61.536 621.696,60.192 622.08,58.368 L627.168,34.464 C627.456,33.024 627.648,31.68 627.648,30.432 C627.648,25.44 625.248,21.6 619.296,21.6 C611.712,21.6 605.376,28.032 600.96,34.752 L605.088,16.224 C606.24,11.136 606.624,7.104 606.624,4.512 C606.624,2.304 606.336,0.864 606.048,0 L604.8,0 L591.072,2.496 L590.4,5.376 C595.008,5.568 597.024,6.72 597.024,10.368 C597.024,11.328 596.928,12.384 596.64,13.728 L584.544,70.08 L593.28,70.08 L598.848,43.872 C602.592,37.536 609.504,28.416 615.456,28.416 C617.664,28.416 618.624,29.568 618.624,31.872 C618.624,32.832 618.432,33.984 618.144,35.328 L613.344,58.368 Z" id="POETRYmash" fill="#5A574A" sketch:type="MSShapeGroup"></path>
        <text id="So-is-it-not-with-me" sketch:type="MSTextLayer" font-family="Georgia" font-size="19" font-weight="normal" sketch:alignment="middle">
            <tspan x="159.508545" y="345" fill="#5A574A">So is it not with me as with that Muse,</tspan>
            <tspan x="478.491455" y="345" fill="#49B993"></tspan>
            <tspan x="153.102539" y="390" fill="#E0BB6D">Who with his fear is put beside his part,</tspan>
            <tspan x="484.897461" y="390" fill="#D66B72"></tspan>
            <tspan x="148.018555" y="435" fill="#5A574A">Who heaven itself for ornament doth use</tspan>
            <tspan x="489.981445" y="435" fill="#49B993"></tspan>
            <tspan x="98.421875" y="480" fill="#E6C680">Whose strength's abundance weakens his own heart;</tspan>
            <tspan x="539.578125" y="480" fill="#D66B72"></tspan>
            <tspan x="149.229248" y="525" fill="#5A574A">Making a couplement of proud compare'</tspan>
            <tspan x="488.770752" y="525" fill="#49B993"></tspan>
            <tspan x="172.571045" y="570" fill="#E6C680">The perfect ceremony of love's rite,</tspan>
            <tspan x="465.428955" y="570" fill="#D66B72"></tspan>
            <tspan x="109.072266" y="615" fill="#5A574A">With April's first-born flowers, and all things rare,</tspan>
            <tspan x="104.248047" y="660" fill="#E6C680">O'ercharg'd with burthen of mine own love's might.</tspan>
            <tspan x="533.751953" y="660" fill="#D66B72"></tspan>
            <tspan x="160.802734" y="705" fill="#5A574A">O! let me, true in love, but truly write,</tspan>
            <tspan x="477.197266" y="705" fill="#49B993"></tspan>
            <tspan x="135.944092" y="750" fill="#E6C680">And dumb presagers of my speaking breast,</tspan>
            <tspan x="502.055908" y="750" fill="#D66B72"></tspan>
            <tspan x="138.467529" y="795" fill="#5A574A">As any mother's child, though not so bright</tspan>
            <tspan x="499.532471" y="795" fill="#49B993"></tspan>
            <tspan x="91.7421875" y="840" fill="#E6C680">More than that tongue that more hath more express'd.</tspan>
            <tspan x="546.257812" y="840" fill="#D66B72"></tspan>
            <tspan x="137.113037" y="885" fill="#5A574A">Let them say more that like of hearsay well;</tspan>
            <tspan x="152.128418" y="930" fill="#5A574A">I will not praise that purpose not to sell.</tspan>
            <tspan x="485.871582" y="930" fill="#49B993"></tspan>
        </text>
        <text id="PoetryMash-is-an-exp" sketch:type="MSTextLayer" font-family="Georgia" font-size="19" font-weight="normal" sketch:alignment="middle" fill="#5A574A">
            <tspan x="27.4641113" y="1250">PoetryMash is an exploration of new forms of poetry and literature by </tspan>
            <tspan x="0.847412109" y="1276">introducing interaction and code. It allows the user to combine Shakespeare </tspan>
            <tspan x="131.170898" y="1302">sonnets and create new meaning and beauty.</tspan>
        </text>
        <text id="Copyright-Tobias-Tre" sketch:type="MSTextLayer" font-family="Georgia" font-size="19" font-weight="normal" sketch:alignment="middle" fill="#5A574A">
            <tspan x="129.654053" y="1450">Copyright Tobias Treppmann — @tobystereo</tspan>
        </text>
        <g id="Group" sketch:type="MSLayerGroup" transform="translate(123.000000, 202.000000)">
            <g id="Triangle-1-+-Rectangle-4" transform="translate(179.500000, 27.500000) rotate(-90.000000) translate(-179.500000, -27.500000) translate(162.000000, 5.000000)" fill="#5A574A" sketch:type="MSShapeGroup">
                <path d="M0,25 L35,25 L17.5,45 L0,25 Z" id="Triangle-1"></path>
                <rect id="Rectangle-4" x="0" y="0" width="35" height="25"></rect>
            </g>
            <g id="Triangle-1-copy-+-Rectangle-4-copy" transform="translate(211.500000, 51.500000) rotate(-270.000000) translate(-211.500000, -51.500000) translate(194.000000, 29.000000)" fill="#E6C680" sketch:type="MSShapeGroup">
                <path d="M7.10542736e-15,25 L35,25 L17.5,45 L7.10542736e-15,25 Z" id="Triangle-1-copy"></path>
                <rect id="Rectangle-4-copy" x="0" y="2.84217094e-14" width="35" height="25"></rect>
            </g>
            <rect id="Rectangle-1-copy" stroke="#5A574A" fill="#FFFFFF" sketch:type="MSShapeGroup" x="0" y="0" width="179" height="53"></rect>
            <rect id="Rectangle-1-copy-2" stroke="#E6C680" fill="#FFFFFF" sketch:type="MSShapeGroup" x="213" y="25" width="179" height="53"></rect>
            <text id="XXI" fill="#5A574A" sketch:type="MSTextLayer" font-family="Georgia" font-size="24" font-weight="bold" sketch:alignment="middle">
                <tspan x="64.7441406" y="36" fill="#000000">XXI</tspan>
            </text>
            <text id="XXIII" fill="#E6C680" sketch:type="MSTextLayer" font-family="Georgia" font-size="24" font-weight="bold" sketch:alignment="middle">
                <tspan x="267.044922" y="60" fill="#000000">XXIII</tspan>
            </text>
        </g>
        <g id="Rectangle-1-copy-+-Share" sketch:type="MSLayerGroup" transform="translate(230.000000, 1002.000000)">
            <rect id="Rectangle-1-copy" stroke="#2A44A2" fill="#FFFFFF" sketch:type="MSShapeGroup" x="0" y="0" width="179" height="53"></rect>
            <text id="Share" fill="#2A44A2" sketch:type="MSTextLayer" font-family="Georgia" font-size="24" font-weight="bold" sketch:alignment="middle">
                <tspan x="53.8066406" y="36" fill="#000000">Share</tspan>
            </text>
        </g>
        <text id="About-PoetryMash" fill="#A89F84" sketch:type="MSTextLayer" font-family="Georgia" font-size="29" font-style="italic" font-weight="normal" sketch:alignment="middle">
            <tspan x="197.116455" y="1189" fill="#000000">About PoetryMash</tspan>
        </text>
    </g>
</svg>